<svg id="Слой_1" data-name="Слой 1" xmlns="http://www.w3.org/2000/svg" viewBox="0 0 2895.65 1442.69"><defs><style>.cls-1{fill:#1e1f26;}.cls-2{fill:#dfedfb;}.cls-3{fill:#d6e8fc;}.cls-4{fill:#233862;}.cls-5{fill:#213f7a;}.cls-6{fill:#f99746;}.cls-7{fill:#ffb27d;}.cls-8{fill:#e2915a;}.cls-9{fill:#ed7d2b;}.cls-10{fill:#c8dbf4;}.cls-11{fill:#d4e4f8;}.cls-12{fill:#9fc1f4;}.cls-13{fill:#163560;}.cls-14{fill:#f9ddbf;}.cls-15{fill:#f2ccaa;}.cls-16{fill:#e8945b;}.cls-17{fill:#ebf3fa;}.cls-18{fill:#fff;}.cls-19{fill:#b5453c;}.cls-20{fill:#cde0fb;}.cls-21{fill:#bed7fb;}.cls-22{fill:#dfebfd;}.cls-23{fill:#b0d4ff;}.cls-24{fill:#95c0f4;}.cls-25{fill:#2b478b;}.cls-26{fill:#ed975d;}.cls-27{fill:#ebf3ff;}.cls-28{fill:#1c468a;}.cls-29{fill:#2c3a64;}.cls-30{fill:#91b8ef;}.cls-31{fill:#739af0;}.cls-32{fill:#f7f7f9;}</style></defs><path class="cls-1" d="M427.93,1708.52S-73.52,1084.61,320.19,702.18c586-569.21,984.85,239.74,1210.59-95,373.42-553.79,1595-411.67,1221.27,277-196.1,361.29,460,307.3,192.52,825.13Z" transform="translate(-169.35 -266.55)"/><path class="cls-2" d="M2106.09,932.41l18.1-42.41.43-1a11,11,0,0,0-4.72-13.86l-33.57-18.87a11.22,11.22,0,0,1-1.54-1,10.82,10.82,0,0,1-3.56-11.34,192,192,0,0,0,5.87-75.74,12.24,12.24,0,0,1,.08-3.09,11.19,11.19,0,0,1,7-8.49l30.08-11.31a11.19,11.19,0,0,0,7-9.23,11.81,11.81,0,0,0-.29-3.85l-11.76-45.6a11.25,11.25,0,0,0-12.78-8.24l-42.14,7.16a10.87,10.87,0,0,1-10.73-4.53c-3.54-5-7.24-9.76-11.26-14.44a192.06,192.06,0,0,0-24.34-23.7l0,0a11.07,11.07,0,0,1-3.58-12.12l13.57-41.24.66-2.08a10.83,10.83,0,0,0-6-13.39l-43.34-18.52a11.33,11.33,0,0,0-14.27,4.85l-21,37.35a10.94,10.94,0,0,1-11.67,5.43,192.78,192.78,0,0,0-59.4-1.7,11,11,0,0,1-11.62-7.07l-13.49-35.62a11.23,11.23,0,0,0-13.34-6.9l-45.79,11.8a10.73,10.73,0,0,0-7.89,12.17l8.34,49.56a11.23,11.23,0,0,1-4.47,11q-6.39,4.63-12.47,9.86a195.09,195.09,0,0,0-21,21,10.66,10.66,0,0,1-11.63,3.31L1690,654a11,11,0,0,0-13.59,6.13l-18.61,43.5a11.1,11.1,0,0,0,3.39,13,7.82,7.82,0,0,0,1.33.87l41.43,23.33a10.92,10.92,0,0,1,5.62,10.73,6.39,6.39,0,0,1-.16,1.14,31.8,31.8,0,0,0-.61,3.4,191.78,191.78,0,0,0-3.28,40.9,10.65,10.65,0,0,1-7.06,10.38l-37.61,14.27A11.19,11.19,0,0,0,1654,835l2.6,10.15,9.17,35.37a11.07,11.07,0,0,0,12.55,8.15l41.52-7a10.65,10.65,0,0,1,11.06,5.25,194.23,194.23,0,0,0,20.89,29.41,190.71,190.71,0,0,0,19,19.2l-2.86,8.65-11.67,35.5a10.69,10.69,0,0,0,3.6,11.89,10,10,0,0,0,2.44,1.42l43.61,18.73a11.1,11.1,0,0,0,13.9-4.75l14.32-25.55a11,11,0,0,1,12.35-5.22,193.45,193.45,0,0,0,60.59,6.51,10.67,10.67,0,0,1,10.74,7l17,45a10.63,10.63,0,0,0,12.56,6.48l46.27-12a10.73,10.73,0,0,0,8-12.25l-8.69-51.55a10.94,10.94,0,0,1,5.11-11.23,186.34,186.34,0,0,0,23.77-17.48q6.15-5.28,11.74-11a11.11,11.11,0,0,1,11.24-2.75l47.51,15.67A11.2,11.2,0,0,0,2106.09,932.41ZM1982.58,733.46c21.4,31.38,24,66.88,12.25,94.13-41.43,95.42-169.91,86.88-199-11.47-7.14-25.27-4.11-53.44,14.12-80.87C1852.62,671.7,1941.63,673.5,1982.58,733.46Z" transform="translate(-169.35 -266.55)"/><path class="cls-3" d="M1516.44,1512.26,1558,1441l1-1.71a19.66,19.66,0,0,0-5.3-25.66l-55.4-41a19.86,19.86,0,0,1-2.51-2.2,19.34,19.34,0,0,1-3.8-20.92,343.63,343.63,0,0,0,27.25-133.16,21.77,21.77,0,0,1,.83-5.47,20,20,0,0,1,14.23-13.54l55.91-13.4a20,20,0,0,0,14.56-14.81,21.71,21.71,0,0,0,.34-6.91l-10.76-83.57a20.1,20.1,0,0,0-20.84-17.47l-76.43,3.34a19.43,19.43,0,0,1-18-10.42c-5.18-9.58-10.68-18.94-16.78-28.13a343,343,0,0,0-38-47.5l0-.08a19.84,19.84,0,0,1-3.66-22.31l33.25-70.21,1.64-3.55a19.38,19.38,0,0,0-7.74-25.1l-72.85-42.52a20.27,20.27,0,0,0-26.4,5.44l-45.6,61.65a19.61,19.61,0,0,1-21.93,7,344.64,344.64,0,0,0-105.1-16.21,19.73,19.73,0,0,1-19.06-15.14l-16-66.24a20.07,20.07,0,0,0-22.15-15.2l-83.92,10.76A19.21,19.21,0,0,0,1018,806.7l3.79,89.84A20.1,20.1,0,0,1,1011.4,915q-12.36,6.79-24.33,14.73a349.25,349.25,0,0,0-41.91,32.6,19.11,19.11,0,0,1-21.38,3.28l-84.34-40.06A19.76,19.76,0,0,0,814,933.44l-42.71,73.09a19.85,19.85,0,0,0,3.14,23.81,14.4,14.4,0,0,0,2.16,1.85l68.39,50.64a19.53,19.53,0,0,1,7.59,20.28,11,11,0,0,1-.55,2,60.29,60.29,0,0,0-1.83,5.9,343.09,343.09,0,0,0-14.91,71.88,19.06,19.06,0,0,1-14.84,16.87l-69.95,17a20,20,0,0,0-15.12,22.09l2.37,18.59,8.42,64.84a19.77,19.77,0,0,0,20.47,17.25l75.28-3.28A19.08,19.08,0,0,1,860.35,1348a346.28,346.28,0,0,0,30.55,56.85,341.87,341.87,0,0,0,29.51,38.32l-7,14.72-28.59,60.45a19.09,19.09,0,0,0,3.74,21.89,17.26,17.26,0,0,0,4,3.07l73.25,43a19.91,19.91,0,0,0,25.75-5.36l31.09-42.18a19.69,19.69,0,0,1,23.1-6.52,346.11,346.11,0,0,0,106.12,25,19.07,19.07,0,0,1,17.52,14.75l20.25,83.73a19,19,0,0,0,20.85,14.3l84.81-11a19.22,19.22,0,0,0,16.87-20l-4-93.46a19.59,19.59,0,0,1,11.56-18.8,333.6,333.6,0,0,0,46.09-25.76q12.09-8,23.28-16.84a19.82,19.82,0,0,1,20.57-2.39l80.87,38.37A20,20,0,0,0,1516.44,1512.26Zm-175.09-380.67a212.44,212.44,0,0,1,21.18,69,121.14,121.14,0,0,1,1,18.1c-.58,27.93-9,61.74-21.33,82.71-94.74,160.21-321,116.5-350.8-64.58-.46-3-.91-6-1.28-9-3.64-28.29,5.32-71.85,19.55-96.52a230.42,230.42,0,0,1,24.76-34.94C1124.33,993.06,1282,1016,1341.35,1131.59Z" transform="translate(-169.35 -266.55)"/><path class="cls-4" d="M541.79,1703.15s-2.21-17.21-7.33-27.44-37.68-3.72-37.68-3.72-6.51,5.58-7.91,31.63Z" transform="translate(-169.35 -266.55)"/><path class="cls-4" d="M652.72,1702.92c-7.65-4.67-3.3-39.51-3.3-39.51s35.65-28.52,40.56-6.68,33.87,31.64,50.35,34.31c11.39,1.85,14.91,8.15,16,11.88Z" transform="translate(-169.35 -266.55)"/><path class="cls-5" d="M578.88,1449.54a163.42,163.42,0,0,1,2.61,19.25c3.32,64.65,54.42,212.46,63.56,215.9,14.14,5.34,36.41-6,48.07-9.72,4.82-1.54,8.08-6.41,7-11.35-25.31-116.34-34.61-283.86-38-383-1.71-50-10.29-84.46-10.29-84.46s-124.63-33.26-125.37,8.81C525.82,1242.14,567.76,1388.13,578.88,1449.54Z" transform="translate(-169.35 -266.55)"/><path class="cls-4" d="M578.88,1449.54l83.26-169c-1.71-50-10.29-84.46-10.29-84.46s-124.63-33.26-125.37,8.81C525.82,1242.14,567.76,1388.13,578.88,1449.54Z" transform="translate(-169.35 -266.55)"/><path class="cls-5" d="M606.61,1205.07,540.72,1682.6s-28.93,7-51.44,1.4c0,0-19.29-254-17.68-315.38s-13.85-164.3,3.52-175.64S606.61,1205.07,606.61,1205.07Z" transform="translate(-169.35 -266.55)"/><path class="cls-6" d="M462.28,1197.11a9.15,9.15,0,0,0,6.6,9.44c9.19,2.67,19.79,4.53,40.23,8.76a389.48,389.48,0,0,0,76.75,7.71c50.47.33,69.58-17.07,69.58-17.07,2.17,0-1.15-10.52-4.15-60.75-1-17-2-38.57-2.69-65.83-.64-24.52-1.07-53.66-1.11-88.22,0-41.58-64.41-86.31-65.6-86.31v0c0,6-9.44,17-24,18-17.25,1.13-38.41-7.46-38.41-17.39,0-.1-31.18,49.88-42.25,103.13-1.41,6.75-2.5,13.88-3.37,21.37C471.26,1052.55,473.79,1036.44,462.28,1197.11Z" transform="translate(-169.35 -266.55)"/><path class="cls-6" d="M581.89,904.84s59.84-.5,74.25,19.7,46,128.85,29.5,165-47.31-15-64.43-37.1S581.89,904.84,581.89,904.84Z" transform="translate(-169.35 -266.55)"/><path class="cls-7" d="M582.5,895.71l0,6.19s1.68,19.34-22.14,22.17-41.56-3.56-40.91-18.49c2.14-11.56,4.19-23.48,4.35-33.05a68.45,68.45,0,0,0-.85-11.58l46.16-.92,13.6,2.22Z" transform="translate(-169.35 -266.55)"/><path class="cls-8" d="M582.68,862.25l-.18,33.46a39,39,0,0,1-16.64,3.67c-21.21,0-34.93-15.56-42.09-26.85a68.45,68.45,0,0,0-.85-11.58l46.16-.92Z" transform="translate(-169.35 -266.55)"/><path class="cls-7" d="M519.38,853.52c5.36,28.82,42.55,27.88,58.63,26.07,4.52-.51,7.37-1.08,7.37-1.08,5.1-1.37,7.94-9.4,9.26-19.92,2.63-20.83-.69-51.4-4.2-59.22-5.3-11.76-15.27-24.49-52.73-15.31S512.51,816.59,519.38,853.52Z" transform="translate(-169.35 -266.55)"/><path class="cls-9" d="M643.09,985.82s23.14,51.12,22.47,66.44a80,80,0,0,0-22.47,2.89C625,1060.54,643.09,985.82,643.09,985.82Z" transform="translate(-169.35 -266.55)"/><path class="cls-4" d="M601.93,771.93A124,124,0,0,1,566,762.21c-15.79-6.86-35.7.7-42.16,4.1a9.67,9.67,0,0,1,1.57-3.89s-2.9,2.06-3.33,4.94c-.3.22-.43.37-.35.42s-3.29-.6-5.41.35c0,0,1.48-.21,2,.74a1,1,0,0,0,.24.26c-24.62,11.9-26.9,50.81-19,59.81,9.53,10.83,23.65,34.94,23.65,34.94s1.48-5.48-.25-15,6.49-9.53,16.89-13.86,1.74-16.47,10.84-23.83,42.46-3,42-8.67C605.14,798,601.93,773.2,601.93,771.93Z" transform="translate(-169.35 -266.55)"/><path class="cls-9" d="M511.84,1081.57c9.77,39.24,115.43,59.51,139.45,63.63-1-17-2-38.57-2.69-65.83Z" transform="translate(-169.35 -266.55)"/><path class="cls-7" d="M535,1094.33c-1,0-23.49-3.36-27.51-5.37s-22.45-28.19-10.39-34.9,44.44,20.13,44.44,20.13Z" transform="translate(-169.35 -266.55)"/><path class="cls-6" d="M671.78,1102.1s-86.95,4.72-145.31-7.77c0,0-1.47-16.86,16.87-24.35,0,0,90.95-19.28,112.8-13.91S671.78,1102.1,671.78,1102.1Z" transform="translate(-169.35 -266.55)"/><path class="cls-6" d="M472.09,1033.86c18,21.76,41.63,39.53,67.64,43.69h0a48.51,48.51,0,0,0,6.43-29c-.66-7.91-3.27-17-9.47-26.66a59.31,59.31,0,0,1-5.11-10.31c-14.2-36.23-12.09-106.07-12.09-106.07s-60.31,6.31-79.1,33.16C428.89,955.06,443.57,999.46,472.09,1033.86Z" transform="translate(-169.35 -266.55)"/><path class="cls-8" d="M578,879.59c4.52-.51,7.37-1.08,7.37-1.08,5.1-1.37,7.94-9.4,9.26-19.92-9.56,2.35-13.94,9.74-15.77,12.89C578.05,872.9,577.88,876.07,578,879.59Z" transform="translate(-169.35 -266.55)"/><path class="cls-7" d="M602.3,895.89s20.83-34.37,4.64-35.86-22.71,9.46-25.05,13.49.61,22.19.61,22.19Z" transform="translate(-169.35 -266.55)"/><path class="cls-6" d="M522.92,1047.34a45,45,0,0,0,3.55,11.94,57.3,57.3,0,0,0,13.26,18.27h0c54.09-24.42,65-108.26,66.87-154.33.74-18.52,0-30.93,0-30.93-24.4-8.08-31.26,6-31.26,6s-28.81,68.51-43.76,113.29C525.87,1028.67,522.19,1042.33,522.92,1047.34Z" transform="translate(-169.35 -266.55)"/><path class="cls-9" d="M472.09,1033.86c18,21.76,41.63,39.53,67.64,43.69h0c54.09-24.42,65-108.26,66.87-154.33,0,0-25.6,92.84-60.44,125.29-6.29,5.87-12.9,9.76-19.7,10.78,0,0-43.93-12.42-53.15-24.11A5.27,5.27,0,0,0,472.09,1033.86Z" transform="translate(-169.35 -266.55)"/><path class="cls-10" d="M2726.78,1536.67s-26.45-30.87-1.63-50.47c0,0,18.14-11,32.92-10.09,0,0-21,35.13-14.17,38.63s20.52-40.83,20.52-40.83,41.27-4,54.54,2.38c0,0-35.28,28.86-27.85,30.58s45.54-26.61,45.54-26.61,38.4,6.53,36.35,30-15.28,30.66-21.09,30-39.84-13.61-40.58-8.84,19.73,20.34,34.08,21.06c0,0-27.08,29.87-45.08,21.25s-19.53-22.28-30.75-27.4-20.79-5.12-16.16.11,24.94,10.3,31.35,21.65,12.17,19-6.45,16.2-48.88-16.42-50.21-32Z" transform="translate(-169.35 -266.55)"/><path class="cls-10" d="M2854.13,1510.85s-104.31-4-127.35,25.82c0,0-5.09,15.25-20.77,29.15l-2.44,6.66s18.07-19.06,24.54-20.21C2728.11,1552.27,2718,1515.31,2854.13,1510.85Z" transform="translate(-169.35 -266.55)"/><path class="cls-10" d="M2706,1565.82s-22.39,16.56-23.94,46.14l4.06.37s7.15-30.6,20.08-42.56S2706,1565.82,2706,1565.82Z" transform="translate(-169.35 -266.55)"/><path class="cls-10" d="M2634.28,1497.85s42.09-23.57,22.45-55.55c0,0-15.71-19.64-32.55-24.69,0,0,9,47.69,0,48.82s-6.17-53.87-6.17-53.87-44.33-21.33-61.72-19.64c0,0,27.49,46.57,18.51,45.45s-39.84-48.26-39.84-48.26-45.45-8.42-52.75,18.52,4.49,40.4,11.23,42.08,49.94,1.13,48.82,6.74S2512,1472,2495.68,1467c0,0,18,44.33,41.53,42.08s30.86-16.83,45.45-18,25.25,2.8,18,6.73-32,1.29-43.76,11.3-21.33,16.19.56,20.68,61.16,1.69,69-15.15Z" transform="translate(-169.35 -266.55)"/><path class="cls-10" d="M2503,1417.05s117.84,38.15,131.3,80.8c0,0-.56,19.08,11.23,41v8.42s-12.35-28.62-19.08-32.55C2626.43,1514.68,2652.8,1477.65,2503,1417.05Z" transform="translate(-169.35 -266.55)"/><path class="cls-10" d="M2645.51,1538.81s18.17,27.6,7.81,61.19l-4.68-1.25s4.54-37-5-55.61S2645.51,1538.81,2645.51,1538.81Z" transform="translate(-169.35 -266.55)"/><path class="cls-11" d="M2701.24,1465.35s-55.48-31.07-29.59-73.23c0,0,20.71-25.89,42.9-32.55,0,0-11.83,62.87,0,64.35s8.14-71,8.14-71,58.43-28.1,81.36-25.88c0,0-36.24,61.39-24.41,59.91s52.52-63.61,52.52-63.61,59.92-11.1,69.53,24.41-5.92,53.25-14.79,55.47-65.83,1.48-64.36,8.88,39.95,19.23,61.4,12.57c0,0-23.67,58.44-54.74,55.48s-40.68-22.19-59.91-23.67-33.29,3.7-23.67,8.88,42.16,1.69,57.69,14.9,28.11,21.34-.74,27.26-80.62,2.22-91-20Z" transform="translate(-169.35 -266.55)"/><path class="cls-11" d="M2874.32,1358.83s-155.33,50.3-173.08,106.52c0,0,.74,25.15-14.8,54v11.1s16.28-37.73,25.15-42.9C2711.59,1487.54,2676.83,1438.72,2874.32,1358.83Z" transform="translate(-169.35 -266.55)"/><path class="cls-11" d="M2686.44,1519.34s-24,36.38-10.3,80.66l6.17-1.66s-6-48.77,6.55-73.3S2686.44,1519.34,2686.44,1519.34Z" transform="translate(-169.35 -266.55)"/><path class="cls-11" d="M2699.37,1696A108.68,108.68,0,0,0,2808,1587.36H2590.7A108.67,108.67,0,0,0,2699.37,1696Z" transform="translate(-169.35 -266.55)"/><path class="cls-11" d="M2809.54,1701.55H2589.2a13.4,13.4,0,0,1,13.4-13.4h193.53a13.4,13.4,0,0,1,13.41,13.4Z" transform="translate(-169.35 -266.55)"/><rect class="cls-12" x="2417.77" y="1320.81" width="223.38" height="3.33"/><path class="cls-13" d="M2321.43,862.7c-16-8.3-28.81-3.08-28.81-3.08-48.95-5.75-63.23,51.33-62.56,71s2.9,40.73-19,66.24c-63.13,73.7,69.1,77,69.1,77,1.11-58.89,71.7-37.4,68.61-31.44C2439.29,1064.07,2357.8,881.57,2321.43,862.7Z" transform="translate(-169.35 -266.55)"/><path class="cls-7" d="M2132.63,1108.18s-8.6-13.1-15.54-13.36-19.78-3.85-18.76-1.28,9,2.83,9.77,4.37-11.82,3.85-15.42,4.11-12.07,0-11.82,1.8,15.28,9.24,25.89,8.22,23.7,3.08,23.7,3.08Z" transform="translate(-169.35 -266.55)"/><path class="cls-14" d="M2257.11,1112.42a128.73,128.73,0,0,1-13.17,19.91c-10.22,12.81-26,27.61-45.79,30.53-9.46,1.39-18.71-.64-27.21-4.42h0c-24-10.68-42.13-35.23-42.13-35.23a19.77,19.77,0,0,1,2.7-19.4s48.55,10.92,53.18,8.61,31.6-80,38-89.79,28.32-14.84,28.32-14.84Z" transform="translate(-169.35 -266.55)"/><path class="cls-15" d="M2243.94,1132.33c-10.22,12.81-26,27.61-45.79,30.53-9.46,1.39-18.71-.64-27.21-4.42.94.13,25,3.09,34.53-14,9.76-17.47,20.32-45.22,34.83-36C2246.56,1112.43,2246.28,1122.35,2243.94,1132.33Z" transform="translate(-169.35 -266.55)"/><path class="cls-4" d="M2438.27,1636.57s14.81,13.53,11.92,23.13-16.26,16-18.07,27.76-9,18.15-15.54,18.15h-31s-4.79-8.27,6.78-10.76,15.92-16.29,15.2-29.1,1.08-29.89,1.08-29.89l24.58-5.69Z" transform="translate(-169.35 -266.55)"/><path class="cls-4" d="M2312.86,1642.31s5.33,57.29-1.17,60.49l-83.25-.17s0-9.61,13.37-11.74,36.86-10,40.83-27.4S2312.86,1642.31,2312.86,1642.31Z" transform="translate(-169.35 -266.55)"/><path class="cls-7" d="M2372.18,1231.36c-17.13-38.42-27.61-49.45-25.61-61.37,1.49-8.88-4.53-165.48-4.53-165.48-2-.63-6.11-1.19-8.34-1.69a20.88,20.88,0,0,1-15.26-13.27c-2.92-8.17-5.24-20.22-5.18-35.33l-2.2.43L2274.17,962s.84,11.61.86,22.55v.27a21.23,21.23,0,0,1-15.31,20.52l-8.72,2.49s-13.55,38.69-16.14,78.42,24.64,57-.2,136.41C2209.29,1303.73,2381.65,1252.58,2372.18,1231.36Z" transform="translate(-169.35 -266.55)"/><path class="cls-16" d="M2274.17,962s.84,11.61.86,22.55c20.65-.59,31.56-19.42,36-29.86Z" transform="translate(-169.35 -266.55)"/><path class="cls-7" d="M2267.27,972.31s48.85.81,48.89-29.62,6.36-50.82-24.83-52.62-37.26,9.8-39.75,20S2254.56,971.32,2267.27,972.31Z" transform="translate(-169.35 -266.55)"/><path class="cls-13" d="M2269.08,889.32s13.37,35.7,33.9,41,29.43-.22,29.43-.22a58.16,58.16,0,0,1-19-34.34S2279.17,872.33,2269.08,889.32Z" transform="translate(-169.35 -266.55)"/><path class="cls-13" d="M2272.39,892.22s-9.92,3.71-14,10.94a49.23,49.23,0,0,0-6.6,27.94s-10.08-24.27,1.25-38C2265.05,878.55,2272.39,892.22,2272.39,892.22Z" transform="translate(-169.35 -266.55)"/><path class="cls-17" d="M2277.9,953.44a12.27,12.27,0,0,1-10.11,4.11,9,9,0,0,1-7.53-5S2270.24,950.18,2277.9,953.44Z" transform="translate(-169.35 -266.55)"/><path class="cls-14" d="M2376.9,1073.79a331.54,331.54,0,0,1,0,38.47c-.83,13.91-14.9,32.55-16.9,37.16-5,11.56-10.66,13.44-10.66,13.44l-43.71,10.71-15.36,3.76-48.47-14.47s-22.07-61.61-13.21-96.3,22.41-58.77,22.41-58.77,39.54,38.73,91-3.28Z" transform="translate(-169.35 -266.55)"/><path class="cls-15" d="M2364.1,1117.94c-.82,13.91-2.1,26.87-4.1,31.48-5,11.56-10.66,13.44-10.66,13.44l-43.71,10.71-19-5.58s63.37-9.6,56.35-64.12Z" transform="translate(-169.35 -266.55)"/><path class="cls-9" d="M2244.88,1172.21s-24,74.71-25.54,100.14,45.88,361.33,47.79,373.05c1.8,11,15.51,18.09,15.51,18.09s6.31,3.72,15.32,1.18c12.49-3.53,16.44-7.75,16.44-7.75s18.68-239.56,7.12-325.13a1356.08,1356.08,0,0,1-11.7-159.58Z" transform="translate(-169.35 -266.55)"/><path class="cls-6" d="M2346.57,1170s36.61,49.12,40,82.32,5.35,149.85,12.62,182.22,34,94.67,34,195.64c0,0-2.78,5.79-11.35,8.87a95.2,95.2,0,0,1-10,2.76,15.7,15.7,0,0,1-17.55-8.33c-18.06-36.37-75.6-153.66-78.55-178-2.08-17.23-20.25-131.26-59.88-198.18-9.51-16.06,5.84-80,5.84-80Z" transform="translate(-169.35 -266.55)"/><path class="cls-18" d="M2276.81,954.25s-.84,3.59-9.76,3c0,0-7.49-.46-7.26-4.4C2259.79,952.88,2267.05,950.07,2276.81,954.25Z" transform="translate(-169.35 -266.55)"/><path class="cls-4" d="M2241.05,1160.68s9.64,7.62,28.78,8c22.86.46,79.51-5.83,79.51-5.83a46.84,46.84,0,0,1,2.42,14.46s-69.2,17.45-109.29,2.55C2242.47,1179.87,2237.3,1170.14,2241.05,1160.68Z" transform="translate(-169.35 -266.55)"/><path class="cls-18" d="M2264.34,1188.39c-5.75,0-10.43-5.3-10.43-11.81s4.68-11.81,10.43-11.81,10.43,5.3,10.43,11.81S2270.09,1188.39,2264.34,1188.39Zm0-20.16c-3.84,0-7,3.75-7,8.35s3.13,8.35,7,8.35,7-3.74,7-8.35S2268.19,1168.23,2264.34,1168.23Z" transform="translate(-169.35 -266.55)"/><rect class="cls-19" x="2299.14" y="1092.21" width="94" height="128.67" transform="translate(-352.07 1558.44) rotate(-41.05)"/><path class="cls-7" d="M2333.35,1174.42s-26,3-25.89,9.2,6.47,18.84,9.68,19.4,21.14-17.13,21.14-17.13Z" transform="translate(-169.35 -266.55)"/><path class="cls-14" d="M2342,1004.51s34.67,2.43,48,34.74,38.51,86.57,38.51,95.7-14.09,37.26-89.75,53.44c0,0-7.82-8.23-7.35-14.74,0,0,47.23-40.57,47.1-45.31-.24-9-7.74-20.81-49.21-62.29C2318,1054.77,2342,1004.51,2342,1004.51Z" transform="translate(-169.35 -266.55)"/><path class="cls-20" d="M2618.84,811l20.68,72.28a9.41,9.41,0,0,1,.33,3.19,9.29,9.29,0,0,1-6.72,8.31l-125.52,35.92a9.28,9.28,0,0,1-11.49-6.39l-20.68-72.25a9.3,9.3,0,0,1,6.38-11.5l125.52-35.91A9.31,9.31,0,0,1,2618.84,811Z" transform="translate(-169.35 -266.55)"/><path class="cls-21" d="M2639.85,886.51a9.29,9.29,0,0,1-6.72,8.31l-125.52,35.92a9.3,9.3,0,0,1-10.13-3.55l63.94-58.25Z" transform="translate(-169.35 -266.55)"/><path class="cls-22" d="M2618.84,811l-56.2,69.78-86.14-25-1.06-3.7a9.3,9.3,0,0,1,6.38-11.5l125.52-35.91A9.31,9.31,0,0,1,2618.84,811Z" transform="translate(-169.35 -266.55)"/><path class="cls-23" d="M1623.44,1703.62h-.36a3.75,3.75,0,0,1-3.75-3.84l5.69-246.84,16.78-2-14.31,248.81A4.06,4.06,0,0,1,1623.44,1703.62Z" transform="translate(-169.35 -266.55)"/><path class="cls-24" d="M1525.68,1703.62h-.36a3.76,3.76,0,0,1-3.75-3.84l5.69-246.84,16.78-2-14.31,248.81A4.06,4.06,0,0,1,1525.68,1703.62Z" transform="translate(-169.35 -266.55)"/><path class="cls-23" d="M1795.44,1703.62h.35a3.76,3.76,0,0,0,3.76-3.84l-5.69-246.84-16.78-2,14.3,248.81A4.07,4.07,0,0,0,1795.44,1703.62Z" transform="translate(-169.35 -266.55)"/><path class="cls-23" d="M1514.57,1437.63V1268.49a53.89,53.89,0,0,1,53.89-53.89h121.86a53.89,53.89,0,0,1,53.89,53.89V1444.1Z" transform="translate(-169.35 -266.55)"/><path class="cls-24" d="M1345.22,1171.08h251.47a0,0,0,0,1,0,0v26.7a0,0,0,0,1,0,0H1361.4a16.18,16.18,0,0,1-16.18-16.18v-10.52A0,0,0,0,1,1345.22,1171.08Z"/><rect class="cls-23" x="1434.91" y="1171.08" width="201.94" height="26.7" rx="11.96"/><path class="cls-4" d="M1787.33,1395.49c-17.46,30.38-39.42,42.11-39.42,42.11h-91.35S1800.65,1372.31,1787.33,1395.49Z" transform="translate(-169.35 -266.55)"/><path class="cls-7" d="M1717.17,1630.58a8.44,8.44,0,0,0-1.51,9,.09.09,0,0,0,0,.05c2.17,6,9.37,12.74,17.73,19.45,1.07.87,2,1.65,2.85,2.38.22.19.44.38.64.57l.49.44c7.8,7.19,4.86,8.84,18.87,23.42,16,16.62,27,16.92,30.1,15.41,2.64-1.29-2.73-10.11-8.69-20-.29-.47-.57-1-.87-1.44l-2.37-4c-7-11.92-5.19-17.51-3.53-35.26,1.34-14.42,22.43-80.55,22.43-80.55l-30.61-5.27s-9.22,52.66-19.37,60.77c-5.43,4.32-11.51,4.38-16.73,7.58-.37.22-.73.45-1.09.69A39.77,39.77,0,0,0,1717.17,1630.58Z" transform="translate(-169.35 -266.55)"/><path class="cls-4" d="M1717.17,1630.58a8.44,8.44,0,0,0-1.51,9,.09.09,0,0,0,0,.05c2.66,6,9.68,12.7,17.76,19.39,1.06.88,2,1.68,2.82,2.44.22.19.44.38.64.57l.49.44c7.8,7.19,4.86,8.84,18.87,23.42,16,16.62,27,16.92,30.1,15.41,2.64-1.29-2.73-10.11-8.69-20a68,68,0,0,1-28.47-21c-9.62-12.28-16-28-22.58-37.18-.37.22-.73.45-1.09.69A39.77,39.77,0,0,0,1717.17,1630.58Z" transform="translate(-169.35 -266.55)"/><path class="cls-7" d="M1964,1611.46c1.89,9.45,15.36,7.87,30.41,4.2s11.47.69,32.88-1.68,27.9-10.36,28.56-13.54c.58-2.82-10-3.82-21.35-5.13l-4.3-.51c-12.81-1.61-22.19-9.88-33.83-16.67-11-6.43-27.48-32.64-27.48-32.64l-29.37,2.33s15.41,23.41,21.38,33.58c3.5,6,3.31,13.9,2.88,20A37.54,37.54,0,0,0,1964,1611.46Z" transform="translate(-169.35 -266.55)"/><path class="cls-4" d="M1994.38,1615.66c15-3.68,11.47.69,32.88-1.68s27.9-10.36,28.56-13.54c.58-2.82-10-3.82-21.35-5.13l-.11.22a60.28,60.28,0,0,1-30.66,9.53c-14.53.36-29.92-3.81-40-3.64a37.54,37.54,0,0,0,.22,10C1965.86,1620.91,1979.33,1619.33,1994.38,1615.66Z" transform="translate(-169.35 -266.55)"/><path class="cls-4" d="M1851.43,1423.68,1824,1497.55,1788.13,1594a58,58,0,0,1-19-1.74c-8.57-2.48-18.41-9-18.41-9s10-103.57,28.52-163c4.75-15.26,10.09-27.61,16-34.56C1824,1351.72,1851.43,1423.68,1851.43,1423.68Z" transform="translate(-169.35 -266.55)"/><path class="cls-25" d="M1823.52,1306.36c-18-5.8-69.29,1.65-120.82,11.73l-10.78-17.79-111.31-8.7S1543.88,1373.05,1564,1425c3,7.63,8.83,12.52,18.84,12.68h1.63l87.75,0c55.35,0,117.15-38,125.14-39.64,13.08-2.62,18.32,23.55,31.4,51s123,121.68,123,121.68,16.89.17,23.87-2.45c7.5-2.81,10.25-6.47,10.25-6.47S1864.08,1319.44,1823.52,1306.36Z" transform="translate(-169.35 -266.55)"/><path class="cls-4" d="M1687.54,976.2c-14.26-7.48-36-8.5-39.48-9-42.18-5.67-67.56,55.62-69.06,74.19-2.75,34.23-20.85,39.45-46.34,60.88-51.11,43-36.12,92.93-8.18,111.49,16.77,11.13,46.32,0,46.32,0,.42.29,80.83-45,120.46-66.77C1750.68,1138.57,1723.87,995.28,1687.54,976.2Z" transform="translate(-169.35 -266.55)"/><path class="cls-7" d="M1658,1128.44c.17.11-19.5,6.83-32.66,1-12.37-5.47-21.75-25.83-21.57-25.84,5.64-.26,11.82-5.18,16.58-37.48l2.39.86,40.31,14.51s-2.92,12.93-4.81,25.24C1656.69,1117.07,1655.84,1127,1658,1128.44Z" transform="translate(-169.35 -266.55)"/><path class="cls-26" d="M1663.09,1081.49s-2.92,12.93-4.81,25.24c-23.15-4.16-32.24-27.23-35.5-39.75Z" transform="translate(-169.35 -266.55)"/><path class="cls-7" d="M1669.1,1094.32s-55.15-7.4-50-41.67,1.48-58.32,36.92-55,40.29,17.38,41.36,29.24S1683.58,1095.37,1669.1,1094.32Z" transform="translate(-169.35 -266.55)"/><path class="cls-4" d="M1695.35,1008.06s-35.31,30.42-59.32,32.88-33.11-5.26-33.11-5.26a93.63,93.63,0,0,0,22.67-30.72,16.89,16.89,0,0,1,13.93-10C1656.66,993.53,1689.17,992.85,1695.35,1008.06Z" transform="translate(-169.35 -266.55)"/><path class="cls-4" d="M1673.28,1005.33s11.81,11.42,15.53,19.89c3.59,8.18,4.66,27.73,1.81,35.49,0,0,18.4-35.78,8-53.17C1687.55,989.11,1673.28,1005.33,1673.28,1005.33Z" transform="translate(-169.35 -266.55)"/><path class="cls-18" d="M1704.48,1209.69c-1.67,111.64-.46,88.31-12.67,98.9-2.94,2.55-11.21,4.07-22.1,4.79-34.23,2.27-94.41-3.37-96.7-9.69-7.9-21.89-2.32-28.69-8.91-62.21-.69-3.56-1.54-7.42-2.53-11.62-5.5-23-10.84-30.85,8.64-67.83,17.68-33.5,36-60.68,37.69-59.7,46.62,27.67,50.38,4.41,50.38,4.41S1705.3,1155.23,1704.48,1209.69Z" transform="translate(-169.35 -266.55)"/><path class="cls-25" d="M1824,1497.55,1788.13,1594a58,58,0,0,1-19-1.74c-8.57-2.48-18.41-9-18.41-9s10-103.57,28.52-163Z" transform="translate(-169.35 -266.55)"/><path class="cls-18" d="M1658.28,1106.73s48,8.14,53.61,28.79l38.79,142.09s-24.39,4.38-35.66-6.88-39.2-104.53-39.2-104.53Z" transform="translate(-169.35 -266.55)"/><path class="cls-27" d="M1669.71,1313.38c-34.23,2.27-94.41-3.37-96.7-9.69-7.9-21.89-2.32-28.69-8.91-62.21l16.51-46.49s-2.73,51.77,12.54,65.39,62.52,26.29,69.94,37.67C1666.67,1303.51,1669,1309,1669.71,1313.38Z" transform="translate(-169.35 -266.55)"/><path class="cls-7" d="M1630.49,1291.6s33.77-7.52,39.22-4.52,18.77,13.91,20.43,17.71-12.13-2.88-16.62-4.08c-2.9-.78-10.55,1.87-14.34,3.14-15.94,5.31-25.71,2.58-25.71,2.58Z" transform="translate(-169.35 -266.55)"/><path class="cls-18" d="M1607.87,1102.3s-45.35,2.8-61,24.69c-22.1,30.82-65.93,162.18-40.81,179.7,28.29,19.72,128.77,5.16,128.77,5.16s3.34-15.63-1.31-23.19-80.25-19.77-83.74-23.26,43.62-68,43.62-78.51S1607.87,1102.3,1607.87,1102.3Z" transform="translate(-169.35 -266.55)"/><path class="cls-7" d="M1671.34,1296.48s7.08,9.13,9.4,10.22a6.94,6.94,0,0,0,3.82.82l-4.77-8.59Z" transform="translate(-169.35 -266.55)"/><path class="cls-7" d="M1669.71,1287.08l20.57,10s-.87,1.44-3.4,1.32-8.93-2.45-8.93-2.45Z" transform="translate(-169.35 -266.55)"/><polygon class="cls-6" points="1511.39 1054.13 1674.14 1054.13 1723.09 932.39 1560.6 932.39 1511.39 1054.13"/><polygon class="cls-9" points="1676.04 1049.39 1461.13 1049.39 1461.13 1054.13 1674.14 1054.13 1676.04 1049.39"/><path class="cls-18" d="M1802.4,1259.81c1.23-4.28-1.24-7.75-5.52-7.75s-8.75,3.47-10,7.75,1.24,7.75,5.52,7.75S1801.18,1264.09,1802.4,1259.81Z" transform="translate(-169.35 -266.55)"/><rect class="cls-23" x="747.25" y="938.89" width="22.42" height="253.1" rx="10.95"/><path class="cls-24" d="M927.71,1703.62h-.35a3.76,3.76,0,0,1-3.76-3.84l5.7-246.84,16.77-2-14.3,248.81A4.07,4.07,0,0,1,927.71,1703.62Z" transform="translate(-169.35 -266.55)"/><path class="cls-23" d="M1197.47,1703.62h.36a3.75,3.75,0,0,0,3.75-3.84l-5.69-246.84-16.78-2,14.31,248.81A4.06,4.06,0,0,0,1197.47,1703.62Z" transform="translate(-169.35 -266.55)"/><path class="cls-23" d="M1196.27,1437.63H916.6v10.52a16.17,16.17,0,0,0,16.18,16.18h263.49a12,12,0,0,0,12-12v-2.77A12,12,0,0,0,1196.27,1437.63Z" transform="translate(-169.35 -266.55)"/><path class="cls-13" d="M1336.28,1650.85s-4.12,51.18,5,51.86c1.21.09,46.48.09,46.48.09l57.78-.34s-.38-13.92-17.27-16.86-50.32-17.16-60.55-39.48C1357,1622.64,1336.28,1650.85,1336.28,1650.85Z" transform="translate(-169.35 -266.55)"/><path class="cls-28" d="M988.68,1370.47s1.92,50.3,10.79,67.16h204.35s49.1,5.08,53.58,8.39c5.64,4.18-19.67,45.63,75.22,207.59l46.49-1.18s-48.61-262.68-57.24-269.33c-12.92-9.94-164.1-44.55-190-45.31S988.68,1370.47,988.68,1370.47Z" transform="translate(-169.35 -266.55)"/><path class="cls-7" d="M1103.24,1072.44c15.77,9.77,16.66,29.23,16.66,29.23-38.46,9.94-94.42-32.76-94.42-32.76s24.75-16.63,33.93-53.19q.69-2.76,1.25-5.67a115.18,115.18,0,0,0,2.09-20l17.67,15.83,29.38,26.32s-.67,10.92-4.34,29.71Q1104.5,1066.82,1103.24,1072.44Z" transform="translate(-169.35 -266.55)"/><path class="cls-23" d="M1125,1274.36c-1.31,8.58,1.35,15.48,2.63,21.87a24.94,24.94,0,0,1,.58,7.15c-2.11,23.74,6.36,26.75,3.71,34.41,0,0-9,5.29-25.6,11.57-7.2,2.71-15.83,5.63-25.76,8.38l-1.57.42c-38.44,10.39-78.86,12.62-90.28,12.31-21.82-.58-26.22-55.88-18.13-125.52,12.61-108.49,29.65-161.09,74.58-199.1,2.83-2.39.92,5.75,16,13,13.95,6.71,30.78,8.28,43.83,5.39l10.28,10.53c20.4,32.23,22.54,70.48,20.8,102.37C1133.86,1217.49,1128.77,1249.66,1125,1274.36Z" transform="translate(-169.35 -266.55)"/><path class="cls-26" d="M1109.8,1032.19s1.56-1.65-2.12,17.14c-32.54-9.41-43.14-26-47.48-37-1.24-3.11,12.09-4.76,20.22-6.48Z" transform="translate(-169.35 -266.55)"/><path class="cls-7" d="M1124.92,1032.28s-62.79,9-67.79-30.2-16.46-64.42,23.42-71.81,49.59,6.56,54.44,19.23S1141.13,1028.93,1124.92,1032.28Z" transform="translate(-169.35 -266.55)"/><rect class="cls-28" x="1380.79" y="1194.74" width="5.03" height="131.75" transform="translate(2157.84 2610.16) rotate(-162.63)"/><rect class="cls-28" x="1227.83" y="1315.25" width="138.26" height="8.27" transform="translate(2410.79 2385.61) rotate(-179.41)"/><path class="cls-29" d="M1037.11,931.06c-.5-.59-1.67-1.07-4.28-1.23a10.62,10.62,0,0,1,4.89-1.34c.57-3.62,2.55-10,8.81-11.54a7.82,7.82,0,0,0-3.84,5.62c7.29-7.37,22.83-12.66,65.72-8.93,56.52,4.91,37.6,41,30.24,45.23s-25.69-7.72-39.34-6.75-16.4,20.67-21,23.34-2.79-2.1-9-5-6.92,7.49-5.17,14.25-6.91,15.59-6.91,15.59l-8.62-9.43c-8.62-9.43-16.51-49.16-12.49-57.58C1036.4,932.57,1036.75,931.81,1037.11,931.06Z" transform="translate(-169.35 -266.55)"/><path class="cls-30" d="M1131.89,1337.79s-9,5.29-25.6,11.57c-71.64-52.27-71.25-176-71.64-178.12l90,79.24,3,45.75a24.94,24.94,0,0,1,.58,7.15C1126.07,1327.12,1134.54,1330.13,1131.89,1337.79Z" transform="translate(-169.35 -266.55)"/><path class="cls-7" d="M1261.59,1279.59a22.17,22.17,0,0,0,11.84-1.92c6.08-2.85,27-11.86,31-10.63s16.8,8.49,19.83,9.87,8.37,8.46,8.37,8.46c-2.22,2.24-10-2.9-13.52-2.8s-29.26,14.17-36.92,14.48-19.6-1.26-19.6-1.26Z" transform="translate(-169.35 -266.55)"/><path class="cls-7" d="M1308.31,1280.71c.06.42,9.42,10.85,16.55,7.54l-7.82-7.72Z" transform="translate(-169.35 -266.55)"/><path class="cls-7" d="M1273.43,1277.67s8.39-7.77,11.17-11.5c0,0,1.68.76,1.74,2.18.12,2.36-2.19,6.7-2.19,6.7Z" transform="translate(-169.35 -266.55)"/><path class="cls-23" d="M1108.39,1093.06c-46.12-28.09-100.55,21-77.66,69.89,26.53,56.71,70.71,125.87,105.81,130,25,2.91,96.52,12.08,126.8,6.43,0,0,14.67.72,6.72-22.9,0,0-97.85-27.27-114.1-48.43-8.71-11.33-23.55-34.28-46.5-134.29C1109.37,1093.31,1108.75,1093.28,1108.39,1093.06Z" transform="translate(-169.35 -266.55)"/><path class="cls-31" d="M2348.33,1703.62h.5a5.18,5.18,0,0,0,5.18-5.31l-7.86-341-23.18-2.71,19.77,343.72A5.6,5.6,0,0,0,2348.33,1703.62Z" transform="translate(-169.35 -266.55)"/><path class="cls-31" d="M1208.92,1703.62h-.49a5.19,5.19,0,0,1-5.19-5.31l7.87-341,23.17-2.71-19.76,343.72A5.61,5.61,0,0,1,1208.92,1703.62Z" transform="translate(-169.35 -266.55)"/><path class="cls-31" d="M1016.43,1055.89H2199.17a15.59,15.59,0,0,1,15.59,15.59v10a15.58,15.58,0,0,1-15.58,15.58H1016.43a15.58,15.58,0,0,1-15.58-15.58v-10A15.58,15.58,0,0,1,1016.43,1055.89Z"/><path class="cls-14" d="M2173.67,491.76a117.87,117.87,0,0,0,27,75.2,98.66,98.66,0,0,1,22.66,62.71v33a38.29,38.29,0,0,0,38.18,38.18h61.09a38.29,38.29,0,0,0,38.19-38.18V629.61a99.11,99.11,0,0,1,22.77-62.8,118.37,118.37,0,0,0-112.75-191.48c-1.52.27-3,.58-4.55.91A118.39,118.39,0,0,0,2173.67,491.76Z" transform="translate(-169.35 -266.55)"/><path class="cls-24" d="M2322.35,700.88l-.13,1-1.68,12.86-.44,3.39v0l-.45,3.41L2318,734.46l-.45,3.39v0l-.44,3.41-.25,1.89c-.85,6.52-8.31,11.51-17.24,11.51h-20.1a22.79,22.79,0,0,1-6.05-.8h0a19.36,19.36,0,0,1-4.68-1.94l-.11-.07a15.16,15.16,0,0,1-3-2.32,11,11,0,0,1-3.34-6.26l-.71-5-.45-3.14h0v-.06h0l-.44-3.07L2259,720.09l-.45-3.13v-.07l-.44-3.09-1.85-12.92Z" transform="translate(-169.35 -266.55)"/><path class="cls-31" d="M2314.37,700.88H2303c-18.33,5.3-36.52,10.54-44.95,12.92l.44,3.09V717l.45,3.13c6.83-1.89,23.21-6.58,63.27-18.19l.13-1Z" transform="translate(-169.35 -266.55)"/><path class="cls-31" d="M2261.1,735.09h0v.06h0l.45,3.14c7.9-2.22,24.18-6.89,58.09-16.72l.45-3.41v0l.44-3.39c-21.43,6.21-47.37,13.7-59.88,17.26Z" transform="translate(-169.35 -266.55)"/><path class="cls-31" d="M2268.65,751.88l.11.07a19.36,19.36,0,0,0,4.68,1.94h0c9.3-2.66,23.1-6.65,43.64-12.6l.44-3.41v0l.45-3.39c-18.34,5.31-39.38,11.38-52.37,15.1A15.16,15.16,0,0,0,2268.65,751.88Z" transform="translate(-169.35 -266.55)"/><rect class="cls-18" x="2255.3" y="548.4" width="5.35" height="153.56" transform="translate(-242.05 119.37) rotate(-9.61)"/><rect class="cls-18" x="2248.74" y="623.69" width="151.49" height="5.35" transform="matrix(0.18, -0.98, 0.98, 0.18, 1120.65, 2533.63)"/><path class="cls-18" d="M2306.14,576.94a10.8,10.8,0,0,1-2.31-.28,3.32,3.32,0,0,1-2.62-2.87c-.61-3.35,2-9.48,5.69-14.68-1.92-3.37-4.49-6.14-7.18-7-4-1.21-10.07,2.46-14.31,7.15a33.38,33.38,0,0,1,2.09,3.4c2.17,4.11,3.73,9.36,1.59,11.79-.79.9-2.41,1.72-5.62.5-4-1.51-5.45-4.91-3.95-9.32a21.2,21.2,0,0,1,3.8-6.49c-3.29-4.29-7.68-7.55-12-7a13.36,13.36,0,0,0-5.95,2.25c2.77,5.15,3.41,11.69,1.48,15.2-1.31,2.39-3.59,3.15-6.44,2.14-2-.73-3.11-3.54-2.71-7.16a16.54,16.54,0,0,1,5.55-10.6,13.65,13.65,0,0,0-3.08-3.45c-7.46-5.79-13.63.42-13.89.69l-1.16-1.12c.07-.08,7.46-7.52,16-.85a15.18,15.18,0,0,1,3.37,3.75,14.79,14.79,0,0,1,6.57-2.45c4.86-.61,9.7,2.81,13.3,7.37,4.62-5,11.2-8.73,15.79-7.34,2.9.87,5.64,3.67,7.73,7.12a27.77,27.77,0,0,1,6.23-6.12c3.38-2.24,5.58-1.73,6.83-.91a12.26,12.26,0,0,1,3.29,3.29,18.18,18.18,0,0,1,3.14-2c3.92-2,7.51-1.8,10.13.41l-1.05,1.23c-2.82-2.38-6.45-1.14-8.36-.19a17,17,0,0,0-3,2c2.61,4.7,3.11,10.83,1.62,13.8a3.43,3.43,0,0,1-4.58,1.8c-3.54-1.3-4.41-3.74-4.51-5.55-.19-3.48,2.22-7.43,5.36-10.35a10.46,10.46,0,0,0-2.92-3c-1.53-1-3.59-.07-5.05.9a27.42,27.42,0,0,0-6.26,6.29c2.43,4.62,3.69,10,2.77,13.49A5.25,5.25,0,0,1,2306.14,576.94Zm1.61-16.25c-3.21,4.68-5.47,10-4.95,12.81a1.74,1.74,0,0,0,1.39,1.58c3.17.72,5.12-.21,5.79-2.76C2310.76,569.38,2309.74,564.78,2307.75,560.69Zm-23.43-.11a19.31,19.31,0,0,0-3.27,5.62c-1.23,3.63-.22,6.08,3,7.29,1.3.49,3,.87,3.84-.06,1.27-1.45.53-5.54-1.82-10A30.75,30.75,0,0,0,2284.32,560.58Zm-20.25-5.14a14.92,14.92,0,0,0-4.77,9.34c-.3,2.77.37,5,1.65,5.46,2.05.73,3.57.27,4.47-1.39C2267.07,565.85,2266.47,560.06,2264.07,555.44Zm59.78,1c-2.81,2.7-4.73,6.17-4.58,8.84.11,1.93,1.27,3.32,3.44,4.12a1.83,1.83,0,0,0,2.58-1C2326.54,565.94,2326,560.62,2323.85,556.48Z" transform="translate(-169.35 -266.55)"/><rect class="cls-3" x="716.68" y="529.87" width="19.75" height="72.66"/><path class="cls-3" d="M903.31,789.23H889.4a2.48,2.48,0,0,1-2.47-2.47h0a2.48,2.48,0,0,1,2.47-2.47h13.91a2.48,2.48,0,0,1,2.47,2.47h0A2.48,2.48,0,0,1,903.31,789.23Z" transform="translate(-169.35 -266.55)"/><rect class="cls-3" x="682.63" y="472.81" width="19.75" height="129.72"/><path class="cls-3" d="M868.81,734H854.9a2.48,2.48,0,0,1-2.47-2.47h0A2.48,2.48,0,0,1,854.9,729h13.91a2.48,2.48,0,0,1,2.47,2.47h0A2.48,2.48,0,0,1,868.81,734Z" transform="translate(-169.35 -266.55)"/><rect class="cls-3" x="650" y="382.48" width="19.75" height="220.05"/><path class="cls-3" d="M836.18,643H822.27a2.48,2.48,0,0,1-2.47-2.47h0a2.48,2.48,0,0,1,2.47-2.47h13.91a2.48,2.48,0,0,1,2.47,2.47h0A2.48,2.48,0,0,1,836.18,643Z" transform="translate(-169.35 -266.55)"/><rect class="cls-3" x="616.51" y="422.41" width="19.75" height="180.13"/><path class="cls-3" d="M802.69,684.14H788.78a2.48,2.48,0,0,1-2.47-2.47h0a2.48,2.48,0,0,1,2.47-2.47h13.91a2.48,2.48,0,0,1,2.47,2.47h0A2.48,2.48,0,0,1,802.69,684.14Z" transform="translate(-169.35 -266.55)"/><rect class="cls-3" x="583.88" y="322.45" width="19.75" height="280.09"/><path class="cls-3" d="M770.06,583.63H756.15a2.48,2.48,0,0,1-2.47-2.47h0a2.47,2.47,0,0,1,2.47-2.46h13.91a2.47,2.47,0,0,1,2.47,2.46h0A2.48,2.48,0,0,1,770.06,583.63Z" transform="translate(-169.35 -266.55)"/><rect class="cls-3" x="552.1" y="366.19" width="19.75" height="236.35"/><path class="cls-3" d="M738.29,627.71H724.37a2.47,2.47,0,0,1-2.46-2.46h0a2.47,2.47,0,0,1,2.46-2.47h13.92a2.48,2.48,0,0,1,2.47,2.47h0A2.47,2.47,0,0,1,738.29,627.71Z" transform="translate(-169.35 -266.55)"/><polygon class="cls-25" points="2023.5 1055.89 1860.76 1055.89 1811.8 934.15 1974.3 934.15 2023.5 1055.89"/><polygon class="cls-25" points="1858.85 1051.15 2073.76 1051.15 2073.76 1055.89 1860.76 1055.89 1858.85 1051.15"/><path class="cls-18" d="M2071.19,1261.57c-1.23-4.28,1.25-7.75,5.53-7.75s8.74,3.47,10,7.75-1.25,7.75-5.53,7.75S2072.42,1265.85,2071.19,1261.57Z" transform="translate(-169.35 -266.55)"/><path class="cls-32" d="M3065,1703.69v1.18a3.33,3.33,0,0,1-3.19,3.43H256.5a3.33,3.33,0,0,1-3.19-3.43v-1.18a3.33,3.33,0,0,1,3.19-3.43H3061.81A3.33,3.33,0,0,1,3065,1703.69Z" transform="translate(-169.35 -266.55)"/></svg>